<svg width="74" height="74" viewBox="0 0 74 74" fill="none" xmlns="http://www.w3.org/2000/svg">
<path d="M54.3438 26.8707L52.9908 26.87L19.8536 26.8745L18.5006 26.8752L18.5 25.4709C18.4969 19.7074 21.5222 14.3473 26.4773 11.1803L24.5512 7.53027C24.316 7.10244 24.2566 6.56091 24.3934 6.06563C24.5333 5.57035 24.8619 5.14444 25.3026 4.90098C25.5576 4.7513 25.8695 4.66779 26.1839 4.66843C26.8666 4.66843 27.4917 5.05323 27.821 5.67377L29.8375 9.48635C31.9238 8.69171 34.1272 8.28701 36.4024 8.28765C38.7103 8.28701 40.9249 8.69171 43.0193 9.48956L45.0327 5.6712C45.357 5.0513 45.9864 4.66587 46.6679 4.66651C46.9748 4.66587 47.2806 4.74359 47.5504 4.89391C48.0035 5.15215 48.3191 5.56328 48.4584 6.06242C48.5977 6.55834 48.5413 7.08125 48.2987 7.53541L46.3739 11.1829C51.3209 14.3563 54.3425 19.7132 54.3419 25.4664L54.3438 26.8707ZM44.548 11.7206L47.1153 6.85384C47.2521 6.59945 47.1624 6.27376 46.9148 6.13308C46.6641 5.9924 46.3541 6.08876 46.2216 6.34378L43.6277 11.2593C41.446 10.254 39.0025 9.68806 36.4197 9.69063C33.8431 9.68806 31.4039 10.2514 29.2284 11.2542L26.6327 6.34957C26.499 6.09133 26.1864 5.99689 25.9413 6.13886C25.6925 6.27698 25.6009 6.60202 25.7389 6.85641L28.3069 11.7186C23.2601 14.4205 19.8505 19.5648 19.8536 25.4715L52.9902 25.4677C52.9914 19.5622 49.5879 14.4289 44.548 11.7206ZM28.8837 19.241C28.1218 19.2397 27.4992 18.5954 27.4992 17.8001C27.4992 17.0074 28.1206 16.3567 28.8855 16.3567C29.653 16.356 30.275 17.0074 30.2757 17.8001C30.2757 18.5941 29.653 19.2404 28.8837 19.241ZM43.9724 19.2378C43.2062 19.2384 42.5811 18.5954 42.583 17.7963C42.583 17.0055 43.2056 16.3541 43.9724 16.3509C44.7343 16.3535 45.3595 17.0049 45.3588 17.7963C45.3595 18.5928 44.7374 19.2384 43.9724 19.2378ZM30.2719 69.3332C27.4992 69.3325 25.2426 66.9917 25.2419 64.1118L25.2407 57.0539L23.9187 57.0552C22.5063 57.0558 21.1818 56.4867 20.186 55.4518C19.1882 54.4188 18.6386 53.0422 18.6405 51.5756L18.6355 26.8013V25.3957H19.9885L52.8769 25.3906L54.2305 25.39V26.7942L54.2342 51.5718C54.2342 54.5936 51.8662 57.0526 48.9554 57.052L47.6259 57.0526L47.6272 64.1067C47.6272 66.9852 45.3706 69.3287 42.599 69.3287C41.2554 69.3312 39.994 68.7897 39.0415 67.8011C38.0889 66.8144 37.5641 65.5039 37.5647 64.1099V57.0526H35.3038V64.1093C35.3026 66.9884 33.046 69.3338 30.2719 69.3332Z" fill="white"/>
<path d="M19.6631 51.6175C19.6612 53.8773 21.4298 55.7015 23.6187 55.7009H26.3123L26.3155 64.1745C26.3148 66.2844 27.9767 67.9992 30.0209 67.9998C32.0689 67.9998 33.7288 66.2831 33.727 64.1713V55.7002L38.7325 55.6989L38.7318 64.1719C38.7343 66.2825 40.398 67.9992 42.441 67.9953C44.4896 67.9966 46.1502 66.2799 46.1496 64.1694L46.1471 55.6977L48.8507 55.697C51.0328 55.6977 52.8075 53.8696 52.8075 51.6137L52.8032 26.7938L19.6562 26.7995L19.6631 51.6175ZM57.9478 51.1427C55.1512 51.1433 52.8762 48.7992 52.8768 45.914L52.873 29.8984C52.8737 27.0132 55.145 24.6665 57.9397 24.6665C60.7381 24.6659 63.0144 27.0125 63.0144 29.8965L63.0156 45.9114C63.0162 48.7947 60.7437 51.1433 57.9478 51.1427ZM57.9434 26.0724C55.896 26.0705 54.2373 27.7853 54.2373 29.8978L54.2386 45.9127C54.2398 48.0277 55.8985 49.7386 57.9471 49.7367C59.9945 49.7367 61.652 48.0271 61.6532 45.9107L61.6495 29.8958C61.6488 27.784 59.9914 26.0718 57.9434 26.0724Z" fill="white"/>
<path d="M14.6935 26.0549C12.6452 26.0536 10.985 27.7707 10.9844 29.8818L10.9869 45.9059C10.9875 48.0247 12.6489 49.7341 14.6973 49.7341C16.7469 49.7341 18.4076 48.0241 18.4058 45.9065V29.8798C18.4045 27.7687 16.7425 26.0536 14.6935 26.0549ZM44.6081 11.6648L47.197 6.78717C47.3349 6.53222 47.2438 6.20773 46.9941 6.06352C46.7414 5.92574 46.4293 6.01909 46.2957 6.27598L43.6807 11.2044C41.48 10.1943 39.0179 9.62772 36.4122 9.63094C33.814 9.62837 31.3525 10.193 29.1606 11.198L26.543 6.28242C26.407 6.0236 26.0937 5.9296 25.8465 6.0706C25.595 6.21031 25.5026 6.53544 25.6418 6.78975L28.2313 11.6635C23.1422 14.3714 19.7039 19.5272 19.7071 25.4471L53.1217 25.4433C53.1223 19.5239 49.6903 14.3791 44.6081 11.6648ZM28.8123 19.202C28.044 19.2007 27.4162 18.555 27.4162 17.7579C27.4162 16.9635 28.0422 16.3106 28.8142 16.3113C29.5881 16.3106 30.2153 16.9635 30.216 17.7579C30.216 18.5537 29.5881 19.2014 28.8123 19.202ZM44.0277 19.1988C43.255 19.1995 42.6266 18.5537 42.6266 17.7541C42.6297 16.9622 43.2544 16.3087 44.0277 16.3055C44.796 16.308 45.4263 16.9609 45.4257 17.7541C45.4276 18.5524 44.7991 19.1995 44.0277 19.1988ZM19.8431 26.7773L19.8481 51.6108C19.8469 53.87 21.6181 55.6933 23.8063 55.6933L26.5012 55.694L26.5043 64.1725C26.5037 66.2836 28.1676 68 30.2116 68C32.2606 68 33.9213 66.2823 33.922 64.1699L33.9201 55.6946L38.928 55.6933L38.9299 64.1712C38.9299 66.281 40.5944 68.0006 42.6384 67.9968C44.688 67.9981 46.3494 66.2803 46.3488 64.1686L46.3463 55.692L49.0512 55.6901C51.2344 55.6907 53.01 53.8655 53.0113 51.6057L53.0069 26.7721L19.8431 26.7773ZM61.8569 29.876C61.8569 27.7623 60.1967 26.0491 58.1477 26.0497C56.0994 26.0478 54.4399 27.7636 54.4399 29.8773L54.443 45.902C54.4424 48.0176 56.1019 49.7276 58.1515 49.7276C60.1998 49.7276 61.8594 48.017 61.8594 45.8995L61.8569 29.876Z" fill="#A4C439"/>
</svg>
