<svg width="74" height="74" viewBox="0 0 74 74" fill="none" xmlns="http://www.w3.org/2000/svg">
<g clip-path="url(#clip0_229_145)">
<path d="M36.9998 67.9998C55.9616 67.9998 71.3332 53.3745 71.3332 35.3332C71.3332 17.2919 55.9616 2.6665 36.9998 2.6665C18.0381 2.6665 2.6665 17.2919 2.6665 35.3332C2.6665 53.3745 18.0381 67.9998 36.9998 67.9998Z" fill="#94C856"/>
<path d="M37 72C16.5976 72 0 55.851 0 36C0 16.149 16.5976 0 37 0C57.4024 0 74 16.149 74 36C74 55.851 57.4024 72 37 72ZM37 6C19.9985 6 6.16667 19.458 6.16667 36C6.16667 52.542 19.9985 66 37 66C54.0015 66 67.8333 52.542 67.8333 36C67.8333 19.458 54.0015 6 37 6Z" fill="#6E6E6E"/>
<path d="M64.2272 68.2709L54.6361 52.8263C59.0962 48.4059 61.5925 42.4769 61.5928 36.3036C61.5928 35.5159 61.2689 34.7604 60.6924 34.2034C60.1159 33.6464 59.334 33.3335 58.5187 33.3335C57.7034 33.3335 56.9215 33.6464 56.345 34.2034C55.7685 34.7604 55.4446 35.5159 55.4446 36.3036C55.4464 40.3819 53.9939 44.3362 51.3315 47.5009L46.2224 39.2737L40.0742 42.2438L46.0256 51.8284C43.2729 53.334 40.1634 54.125 37.0002 54.1243C33.8395 54.1155 30.7352 53.3152 27.9901 51.8016L33.9261 42.2438L27.7779 39.2737L9.77309 68.2709C9.48487 68.7314 9.33283 69.2594 9.3335 69.7975V72.5122C9.33351 72.7654 9.40054 73.0145 9.52824 73.2356C9.65593 73.4568 9.84004 73.6427 10.0631 73.7758C10.2861 73.9088 10.5406 73.9845 10.8025 73.9957C11.0643 74.007 11.3248 73.9533 11.5591 73.8398L14.6824 72.331C15.205 72.0785 15.6415 71.6865 15.9428 71.2024L24.8361 56.8805C28.5319 58.9535 32.7267 60.0515 37.0002 60.0645C41.2774 60.0646 45.4795 58.9789 49.1858 56.9162L58.0576 71.2053C58.3588 71.6895 58.7953 72.0815 59.3179 72.334L62.4412 73.8428C62.6758 73.9564 62.9365 74.01 63.1986 73.9987C63.4607 73.9873 63.7155 73.9113 63.9386 73.778C64.1617 73.6446 64.3457 73.4582 64.4732 73.2366C64.6007 73.0151 64.6673 72.7657 64.6668 72.5122V69.7975C64.6675 69.2594 64.5154 68.7314 64.2272 68.2709Z" fill="#F2F2F2"/>
<path d="M46.2498 20.4243H43.1665V14.3638C43.1665 13.5601 42.8417 12.7893 42.2634 12.221C41.6852 11.6528 40.9009 11.3335 40.0832 11.3335H33.9165C33.0988 11.3335 32.3145 11.6528 31.7363 12.221C31.158 12.7893 30.8332 13.5601 30.8332 14.3638V20.4243H27.7498C26.9321 20.4243 26.1478 20.7435 25.5696 21.3118C24.9914 21.8801 24.6665 22.6509 24.6665 23.4545V35.5756C24.6665 36.5877 25.1814 37.5331 26.0386 38.0968L35.2886 44.1573C35.7953 44.4895 36.3907 44.6668 36.9998 44.6668C37.6089 44.6668 38.2044 44.4895 38.7111 44.1573L47.9611 38.0968C48.8183 37.5331 49.3332 36.5877 49.3332 35.5756V23.4545C49.3332 22.6509 49.0083 21.8801 48.4301 21.3118C47.8518 20.7435 47.0676 20.4243 46.2498 20.4243ZM36.9998 35.5756C36.1786 35.5938 35.362 35.4507 34.5978 35.1545C33.8337 34.8583 33.1375 34.415 32.5501 33.8508C31.9626 33.2865 31.4958 32.6126 31.177 31.8685C30.8583 31.1245 30.694 30.3254 30.6938 29.5181C30.6936 28.7108 30.8575 27.9117 31.1758 27.1675C31.4942 26.4233 31.9607 25.7492 32.5479 25.1846C33.135 24.62 33.831 24.1764 34.595 23.8799C35.359 23.5833 36.1755 23.4397 36.9968 23.4576C38.608 23.4926 40.1412 24.1461 41.2683 25.2783C42.3954 26.4104 43.0267 27.9312 43.0271 29.5151C43.0275 31.099 42.397 32.6201 41.2705 33.7528C40.144 34.8855 38.611 35.5398 36.9998 35.5756Z" fill="#6E6E6E"/>
</g>
<defs>
<clipPath id="clip0_229_145">
<rect width="74" height="74" fill="white"/>
</clipPath>
</defs>
</svg>
