<svg width="74" height="74" viewBox="0 0 74 74" fill="none" xmlns="http://www.w3.org/2000/svg">
<g clip-path="url(#clip0_229_159)">
<path d="M24.6668 74.0002C31.4748 74.0002 37.0002 68.4748 37.0002 61.6668V49.3335H24.6668C17.8588 49.3335 12.3335 54.8588 12.3335 61.6668C12.3335 68.4748 17.8588 74.0002 24.6668 74.0002Z" fill="#0ACF83"/>
<path d="M12.3335 36.9998C12.3335 30.1918 17.8588 24.6665 24.6668 24.6665H37.0002V49.3332H24.6668C17.8588 49.3332 12.3335 43.8078 12.3335 36.9998Z" fill="#A259FF"/>
<path d="M12.3335 12.3333C12.3335 5.52533 17.8588 0 24.6668 0H37.0002V24.6667H24.6668C17.8588 24.6667 12.3335 19.1413 12.3335 12.3333Z" fill="#F24E1E"/>
<path d="M25.9587 49.3335H24.6668C17.8588 49.3335 12.3335 54.8588 12.3335 61.6668C12.3335 68.4748 17.8588 74.0002 24.6668 74.0002C25.1047 74.0002 25.5332 73.9786 25.9587 73.9323V49.3335Z" fill="#09B472"/>
<path d="M25.9587 24.6665H24.6668C17.8588 24.6665 12.3335 30.1918 12.3335 36.9998C12.3335 43.8078 17.8588 49.3332 24.6668 49.3332H25.9587V24.6665Z" fill="#8D4DDE"/>
<path d="M25.9587 0H24.6668C17.8588 0 12.3335 5.52533 12.3335 12.3333C12.3335 19.1413 17.8588 24.6667 24.6668 24.6667H25.9587V0Z" fill="#D3441A"/>
<path d="M37 0H49.3333C56.1413 0 61.6667 5.52533 61.6667 12.3333C61.6667 19.1413 56.1413 24.6667 49.3333 24.6667H37V0Z" fill="#FF7262"/>
<path d="M61.6667 36.9998C61.6667 43.8078 56.1413 49.3332 49.3333 49.3332C42.5253 49.3332 37 43.8078 37 36.9998C37 30.1918 42.5253 24.6665 49.3333 24.6665C56.1413 24.6665 61.6667 30.1918 61.6667 36.9998Z" fill="#1ABCFE"/>
<path d="M49.3333 0H37V24.6667H49.3333V0Z" fill="#DE6355"/>
<path d="M49.3333 24.6665C42.5253 24.6665 37 30.1918 37 36.9998C37 43.8078 42.5253 49.3332 49.3333 49.3332V24.6665Z" fill="#17A4DD"/>
</g>
<defs>
<clipPath id="clip0_229_159">
<rect width="74" height="74" fill="white"/>
</clipPath>
</defs>
</svg>
