<svg width="74" height="74" viewBox="0 0 74 74" fill="none" xmlns="http://www.w3.org/2000/svg">
<g clip-path="url(#clip0_229_131)">
<path d="M45.3683 26.7294L37.9683 33.6207L31.0986 19.758L34.6475 11.7876C35.5448 10.1966 37.0125 10.1781 37.9097 11.7876L45.3683 26.7294Z" fill="#FFA000"/>
<path d="M37.968 33.6174L10.2827 59.3663L31.0983 19.7578L37.968 33.6174Z" fill="#F57F17"/>
<path d="M53.4836 16.1906C54.8095 14.9264 56.1754 15.355 56.5207 17.1464L63.7172 59.0181L39.8461 73.3494C39.0074 73.8181 36.7874 74 36.7874 74C36.7874 74 34.7678 73.7534 33.9939 73.3279L10.2861 59.3665L53.4836 16.1906Z" fill="#FFCA28"/>
<path d="M31.0986 19.7579L10.2861 59.3664L19.5608 1.47069C19.9092 -0.323814 20.9267 -0.50573 21.8425 1.08219L31.0986 19.7579Z" fill="#FFA000"/>
</g>
<defs>
<clipPath id="clip0_229_131">
<rect width="74" height="74" fill="white"/>
</clipPath>
</defs>
</svg>
