<svg width="74" height="74" viewBox="0 0 74 74" fill="none" xmlns="http://www.w3.org/2000/svg">
<g clip-path="url(#clip0_229_171)">
<path d="M72.6044 33.7029L40.2953 1.39552C38.4358 -0.465174 35.418 -0.465174 33.5561 1.39552L26.847 8.10466L35.3578 16.6155C37.3356 15.9472 39.6036 16.3956 41.1801 17.9721C42.7642 19.5588 43.2094 21.8461 42.5248 23.8302L50.727 32.0327C52.7114 31.349 55.0011 31.7913 56.586 33.3788C58.8011 35.5931 58.8011 39.1818 56.586 41.3974C54.3703 43.6134 50.7816 43.6134 48.5648 41.3974C46.8987 39.7295 46.487 37.2826 47.3305 35.23L39.6813 27.5808L39.6805 47.7103C40.235 47.9844 40.7414 48.3466 41.1801 48.7827C43.3952 50.9969 43.3952 54.5859 41.1801 56.8033C38.9645 59.0181 35.374 59.0181 33.1615 56.8033C30.9464 54.5859 30.9464 50.9972 33.1615 48.783C33.6924 48.2519 34.3232 47.8313 35.0176 47.5455V27.2285C34.3222 26.9446 33.691 26.5237 33.1615 25.991C31.4832 24.315 31.0797 21.8525 31.9397 19.7917L23.5499 11.4011L1.39617 33.5534C-0.465391 35.4159 -0.465391 38.434 1.39617 40.295L33.7058 72.6029C35.566 74.4639 38.5832 74.4639 40.4456 72.6029L72.6041 40.445C74.4651 38.5834 74.4654 35.5636 72.6044 33.7029Z" fill="#DE4C36"/>
</g>
<defs>
<clipPath id="clip0_229_171">
<rect width="74" height="74" fill="white"/>
</clipPath>
</defs>
</svg>
