<svg width="74" height="74" viewBox="0 0 74 74" fill="none" xmlns="http://www.w3.org/2000/svg">
<path fill-rule="evenodd" clip-rule="evenodd" d="M36.9997 0C16.568 0 0 16.9838 0 37.9367C0 54.6988 10.6015 68.9185 25.3027 73.9354C27.1512 74.2872 27.83 73.1125 27.83 72.1105C27.83 71.2058 27.7957 68.2174 27.7798 65.0474C17.4864 67.3423 15.3144 60.5714 15.3144 60.5714C13.6313 56.1864 11.2063 55.0205 11.2063 55.0205C7.84868 52.6659 11.4593 52.7149 11.4593 52.7149C15.1741 52.9819 17.1311 56.6243 17.1311 56.6243C20.4311 62.4227 25.7867 60.7467 27.898 59.7779C28.2301 57.326 29.189 55.6518 30.2471 54.7045C22.029 53.7464 13.3893 50.4929 13.3893 35.9566C13.3893 31.8148 14.8353 28.4306 17.2022 25.7732C16.8174 24.8183 15.5509 20.9598 17.56 15.7343C17.56 15.7343 20.6664 14.7147 27.7369 19.623C30.6889 18.7818 33.8547 18.359 36.9997 18.3445C40.1428 18.359 43.3105 18.7805 46.268 19.6217C53.33 14.7135 56.4327 15.7331 56.4327 15.7331C58.4466 20.9579 57.1802 24.8171 56.796 25.7719C59.1684 28.4293 60.6039 31.8135 60.6039 35.9553C60.6039 50.5262 51.9483 53.7339 43.7094 54.6737C45.0371 55.851 46.2196 58.1603 46.2196 61.699C46.2196 66.775 46.1767 70.8603 46.1767 72.1098C46.1767 73.1194 46.8433 74.3023 48.7182 73.9298C63.4107 68.9078 74 54.6925 74 37.9367C73.9994 16.9851 57.4332 0 36.9997 0Z" fill="white"/>
</svg>
