<svg width="74" height="74" viewBox="0 0 74 74" fill="none" xmlns="http://www.w3.org/2000/svg">
<g clip-path="url(#clip0_229_486)">
<path d="M67.8334 44.2615C67.8334 41.9737 66.0944 40.1113 63.9484 40.1113H32.9177C30.7717 40.1113 29.0327 41.9737 29.0327 44.2615C29.0327 46.5493 30.7686 48.4117 32.9177 48.4117H63.9484C66.0944 48.4147 67.8334 46.5524 67.8334 44.2615Z" fill="#B3B1B0"/>
<path d="M10.736 56.0768L24.0344 69.5232C27.0345 72.5418 31.1816 74.0002 35.7603 74.0002C40.3391 74.0002 44.4862 72.4216 47.4924 69.3937L55.4721 61.263C57.0446 59.6781 56.9891 57.0542 55.3518 55.4046C53.7146 53.7551 51.1123 53.6996 49.5428 55.2844L41.2918 63.3226C39.8673 64.7626 37.894 65.3638 35.7141 65.3638C33.5342 65.3638 31.5639 64.7626 30.1333 63.3226L16.8811 49.8701C15.4535 48.4301 14.7351 46.3242 14.7351 44.1258C14.7351 41.9274 15.4535 39.9417 16.8811 38.5018L30.0932 24.9968C31.5208 23.5569 33.5342 23.0081 35.711 23.0081C37.8878 23.0081 39.8612 23.6093 41.2888 25.0492L49.5397 33.0844C51.1123 34.6723 53.7146 34.6168 55.3518 32.9672C56.9891 31.3146 57.0446 28.6906 55.4721 27.1058L47.4924 18.9781C45.4638 16.9511 42.9094 15.5308 40.1171 14.8773L40.0123 14.8557L47.5572 7.13813C49.1358 5.5533 49.0803 2.9263 47.4431 1.27672C45.8058 -0.372866 43.2004 -0.425282 41.6248 1.15955L10.736 32.3012C7.73592 35.3291 6.1665 39.507 6.1665 44.1258C6.1665 48.7446 7.73592 53.0551 10.736 56.0768Z" fill="#E7A41F"/>
<path d="M25.0214 70.3429C24.484 70.0429 23.9919 69.6682 23.5599 69.2299C19.4683 65.1198 15.3582 61.0282 11.2759 56.9058C5.14315 50.7144 4.17807 41.6834 8.8524 34.3358C9.59928 33.2127 10.4667 32.1746 11.4393 31.2401L41.1102 1.50753C43.0373 -0.422639 45.7291 -0.502805 47.5205 1.30094C49.2472 3.03686 49.1454 5.78719 47.28 7.67111C44.9089 10.0638 42.5347 12.4503 40.1606 14.8399C40.0341 15.216 39.7289 15.4565 39.4668 15.7248C36.8059 18.4258 34.071 21.0559 31.4471 23.7969C31.1048 24.1546 30.6392 24.3704 30.3001 24.7374C25.9125 29.1249 21.4725 33.4632 17.1466 37.9094C13.647 41.5076 13.7641 46.9682 17.3562 50.6343C21.3892 54.7536 25.4932 58.8051 29.5693 62.8874C29.7759 63.094 29.9886 63.2944 30.1983 63.4979C31.6413 64.4322 31.6598 67.3521 30.7626 68.6502C29.7728 70.0839 28.4809 70.9627 26.6525 70.8949C26.0389 70.8764 25.5332 70.6297 25.0214 70.3429Z" fill="#070706"/>
</g>
<defs>
<clipPath id="clip0_229_486">
<rect width="74" height="74" fill="white"/>
</clipPath>
</defs>
</svg>
