<svg width="74" height="74" viewBox="0 0 74 74" fill="none" xmlns="http://www.w3.org/2000/svg">
<g clip-path="url(#clip0_229_475)">
<path d="M57.3904 0H16.6096C7.43638 0 0 7.43638 0 16.6096V57.3904C0 66.5636 7.43638 74 16.6096 74H57.3904C66.5636 74 74 66.5636 74 57.3904V16.6096C74 7.43638 66.5636 0 57.3904 0Z" fill="#0B86CA"/>
<path d="M20.5056 30.7587H28.1953V55.5707H20.5056V30.7587ZM24.4274 18.4297C25.3084 18.4297 26.1696 18.6906 26.9025 19.1796C27.6354 19.6685 28.207 20.3636 28.5453 21.177C28.8836 21.9905 28.9735 22.8859 28.8034 23.7504C28.6334 24.6148 28.2112 25.4096 27.59 26.0343C26.9688 26.6591 26.1765 27.0859 25.3131 27.2608C24.4496 27.4358 23.5537 27.3511 22.7383 27.0175C21.9229 26.6838 21.2246 26.1162 20.7314 25.3861C20.2383 24.6561 19.9724 23.7963 19.9674 22.9153C19.964 22.3275 20.0768 21.7447 20.2995 21.2007C20.5221 20.6566 20.8501 20.1619 21.2646 19.745C21.679 19.3282 22.1719 18.9974 22.7146 18.7716C23.2574 18.5459 23.8395 18.4297 24.4274 18.4297ZM33.1166 30.7587H40.5243V34.1422C41.2659 32.8767 42.3371 31.8364 43.6237 31.1321C44.9102 30.4279 46.3639 30.0862 47.8295 30.1436C55.5191 30.1436 57.0827 35.27 57.0827 41.96V55.5707H49.3931V43.5748C49.3931 40.704 49.3931 36.9874 45.3944 36.9874C41.3958 36.9874 40.7807 40.1145 40.7807 43.3441V55.6219H33.091L33.1166 30.7587Z" fill="white"/>
</g>
<defs>
<clipPath id="clip0_229_475">
<rect width="74" height="74" fill="white"/>
</clipPath>
</defs>
</svg>
