<svg width="74" height="74" viewBox="0 0 74 74" fill="none" xmlns="http://www.w3.org/2000/svg">
<path d="M52.9371 4.517V4.51728C52.2951 4.08976 51.3984 4.07415 50.7312 4.67829L24.3178 28.6208L11.8445 19.1759C11.3612 18.81 10.6874 18.8325 10.2295 19.2303L3.77967 24.834C3.19952 25.3382 3.18998 26.2357 3.75943 26.752L15.0693 37.0036L3.75943 47.2552C3.18998 47.7714 3.19952 48.669 3.77967 49.1731L10.2295 54.7769C10.6874 55.1746 11.3609 55.1972 11.8445 54.8312L24.3809 45.4436L50.7312 69.3289C51.3984 69.933 52.2982 69.9174 52.9371 69.4899V69.491L70.6612 59.4955V13.8396L52.9371 4.517ZM52.9371 50.29L35.3887 37.0036L52.9371 23.7139V50.29Z" fill="#3193F3"/>
<path d="M8.21204 47.2546L19.5228 37.0036L8.21204 26.7525C7.64201 26.236 7.65097 25.3364 8.23286 24.8349L13.3955 20.3492L11.8458 19.1765C11.362 18.8114 10.6882 18.8322 10.2309 19.23L3.77985 24.8349C3.19797 25.3367 3.189 26.236 3.75904 26.7525L15.0698 37.0036L3.75904 47.2546C3.189 47.7711 3.19797 48.6707 3.77985 49.1722L10.2309 54.7772C10.6882 55.1749 11.362 55.1957 11.8458 54.8306L13.4045 53.664L8.23286 49.1722C7.65097 48.6704 7.64201 47.7711 8.21204 47.2546Z" fill="#35B1FC"/>
<path d="M52.9356 4.51707C52.2944 4.08955 51.3978 4.07481 50.7297 4.67721L50.0172 5.32442L66.2085 13.8388V59.4944L49.9756 68.647L50.7297 69.3298C51.3978 69.9325 52.2973 69.9175 52.9356 69.4899L70.6618 59.4944V13.8388L52.9356 4.51707Z" fill="#307FED"/>
<path d="M71.1992 12.8162L53.4916 3.50233C52.3573 2.79846 50.9496 2.92074 49.9543 3.82174L24.2517 27.1199L12.5424 18.2541C11.6281 17.562 10.3368 17.6054 9.4711 18.3573L3.02125 23.961C1.91877 24.9187 1.90085 26.6276 2.98281 27.6084L13.3474 37.0032L2.98281 46.3983C1.90056 47.3791 1.91877 49.0878 3.02125 50.0457L9.4711 55.6498C10.3371 56.4016 11.6284 56.4447 12.5424 55.7527L24.2509 46.8869L49.9543 70.1856C50.8808 71.0241 52.274 71.2271 53.4482 70.5247C53.552 70.4732 71.1276 60.5592 71.2284 60.5023C71.5921 60.2973 71.8167 59.9123 71.8167 59.4952V13.8395C71.8173 13.4102 71.5794 13.0162 71.1992 12.8162ZM11.1462 53.9093C11.0994 53.9452 11.032 53.9429 10.9875 53.9041L4.53767 48.3004C4.48044 48.2506 4.47957 48.1628 4.53594 48.1122L15.0691 38.5645L22.5072 45.3068L11.1462 53.9093ZM51.7809 68.6203C51.6887 68.5966 51.5959 68.5515 51.5077 68.472C49.4389 66.5966 6.58828 27.7555 4.53594 25.8951C4.47928 25.844 4.48073 25.7561 4.53767 25.7067L10.9875 20.1029C11.0318 20.0639 11.0991 20.0616 11.1462 20.0974C11.7348 20.5431 51.2921 50.4944 51.7806 50.8646V68.6203H51.7809ZM51.7809 47.9642L37.3046 37.0032L51.7809 26.04V47.9642ZM51.7809 23.1389L35.389 35.5527L26.1278 28.5406L51.5072 5.5356C51.5994 5.45206 51.6922 5.40638 51.7806 5.38384V23.1389H51.7809ZM69.5048 58.8196L54.0934 67.5109V6.43169L69.5048 14.5379V58.8196Z" fill="#5F266D"/>
<path d="M64.6802 32.2062C65.3187 32.2062 65.8364 31.6885 65.8364 31.05V28.7441C65.8364 28.1056 65.3187 27.5879 64.6802 27.5879C64.0416 27.5879 63.5239 28.1056 63.5239 28.7441V31.05C63.5239 31.6885 64.0416 32.2062 64.6802 32.2062ZM64.6802 25.5645C65.3187 25.5645 65.8364 25.0467 65.8364 24.4082V18.916C65.8364 18.2775 65.3187 17.7598 64.6802 17.7598C64.0416 17.7598 63.5239 18.2775 63.5239 18.916V24.4082C63.5239 25.0467 64.0416 25.5645 64.6802 25.5645Z" fill="#5F266D"/>
</svg>
